<mxfile host="app.diagrams.net" agent="Mozilla/5.0 (X11; Linux x86_64) AppleWebKit/537.36 (KHTML, like Gecko) Chrome/135.0.0.0 Safari/537.36" version="26.2.13">
  <diagram name="Page-1" id="e56a1550-8fbb-45ad-956c-1786394a9013">
    <mxGraphModel dx="1181" dy="1136" grid="1" gridSize="10" guides="1" tooltips="1" connect="1" arrows="1" fold="1" page="1" pageScale="1" pageWidth="1100" pageHeight="850" background="none" math="0" shadow="0">
      <root>
        <mxCell id="0" />
        <mxCell id="1" parent="0" />
        <mxCell id="-yXR84pEISBXPebQsvSQ-64" style="edgeStyle=orthogonalEdgeStyle;rounded=0;orthogonalLoop=1;jettySize=auto;html=1;exitX=1;exitY=0.25;exitDx=0;exitDy=0;" edge="1" parent="1" source="-yXR84pEISBXPebQsvSQ-5">
          <mxGeometry relative="1" as="geometry">
            <mxPoint x="270" y="350" as="targetPoint" />
            <Array as="points">
              <mxPoint x="300" y="210" />
              <mxPoint x="300" y="351" />
            </Array>
          </mxGeometry>
        </mxCell>
        <mxCell id="-yXR84pEISBXPebQsvSQ-5" value="" style="rounded=1;whiteSpace=wrap;html=1;" vertex="1" parent="1">
          <mxGeometry x="40" y="30" width="220" height="720" as="geometry" />
        </mxCell>
        <mxCell id="-yXR84pEISBXPebQsvSQ-6" value="&lt;h1&gt;&lt;font face=&quot;Verdana&quot; style=&quot;font-size: 22px;&quot;&gt;GUI Layer&lt;/font&gt;&lt;/h1&gt;" style="text;html=1;align=center;verticalAlign=middle;whiteSpace=wrap;rounded=0;" vertex="1" parent="1">
          <mxGeometry x="61" y="60" width="180" height="50" as="geometry" />
        </mxCell>
        <mxCell id="-yXR84pEISBXPebQsvSQ-9" value="" style="endArrow=none;html=1;rounded=0;" edge="1" parent="1">
          <mxGeometry width="50" height="50" relative="1" as="geometry">
            <mxPoint x="40" y="130" as="sourcePoint" />
            <mxPoint x="260" y="130" as="targetPoint" />
          </mxGeometry>
        </mxCell>
        <mxCell id="-yXR84pEISBXPebQsvSQ-30" value="" style="rounded=1;whiteSpace=wrap;html=1;" vertex="1" parent="1">
          <mxGeometry x="440" y="30" width="220" height="720" as="geometry" />
        </mxCell>
        <mxCell id="-yXR84pEISBXPebQsvSQ-31" value="&lt;h1&gt;&lt;font face=&quot;Verdana&quot; style=&quot;font-size: 22px;&quot;&gt;Business Logic Layer&lt;/font&gt;&lt;/h1&gt;" style="text;html=1;align=center;verticalAlign=middle;whiteSpace=wrap;rounded=0;" vertex="1" parent="1">
          <mxGeometry x="461" y="60" width="180" height="50" as="geometry" />
        </mxCell>
        <mxCell id="-yXR84pEISBXPebQsvSQ-32" value="" style="endArrow=none;html=1;rounded=0;" edge="1" parent="1">
          <mxGeometry width="50" height="50" relative="1" as="geometry">
            <mxPoint x="440" y="130" as="sourcePoint" />
            <mxPoint x="660" y="130" as="targetPoint" />
          </mxGeometry>
        </mxCell>
        <mxCell id="-yXR84pEISBXPebQsvSQ-37" value="" style="rounded=1;whiteSpace=wrap;html=1;" vertex="1" parent="1">
          <mxGeometry x="840" y="30" width="220" height="720" as="geometry" />
        </mxCell>
        <mxCell id="-yXR84pEISBXPebQsvSQ-38" value="&lt;h1&gt;&lt;font face=&quot;Verdana&quot; style=&quot;font-size: 22px;&quot;&gt;Infrastructure Layer&lt;/font&gt;&lt;/h1&gt;" style="text;html=1;align=center;verticalAlign=middle;whiteSpace=wrap;rounded=0;" vertex="1" parent="1">
          <mxGeometry x="861" y="60" width="180" height="50" as="geometry" />
        </mxCell>
        <mxCell id="-yXR84pEISBXPebQsvSQ-39" value="" style="endArrow=none;html=1;rounded=0;" edge="1" parent="1">
          <mxGeometry width="50" height="50" relative="1" as="geometry">
            <mxPoint x="840" y="130" as="sourcePoint" />
            <mxPoint x="1060" y="130" as="targetPoint" />
          </mxGeometry>
        </mxCell>
        <mxCell id="-yXR84pEISBXPebQsvSQ-44" value="&lt;h2 style=&quot;margin:0px;margin-top:4px;text-align:center;&quot;&gt;UserManager&lt;/h2&gt;&lt;hr size=&quot;1&quot; style=&quot;border-style:solid;&quot;&gt;&lt;h3&gt;&lt;div style=&quot;height:2px;&quot;&gt;&lt;ul&gt;&lt;li&gt;Benutzerdaten- Repräsentation&lt;/li&gt;&lt;li&gt;Berechtigungs-verwaltung&lt;/li&gt;&lt;/ul&gt;&lt;div&gt;&lt;br&gt;&lt;/div&gt;&lt;/div&gt;&lt;/h3&gt;" style="verticalAlign=top;align=left;overflow=fill;html=1;whiteSpace=wrap;" vertex="1" parent="1">
          <mxGeometry x="460" y="170" width="179" height="120" as="geometry" />
        </mxCell>
        <mxCell id="-yXR84pEISBXPebQsvSQ-47" value="&lt;h2 style=&quot;margin:0px;margin-top:4px;text-align:center;&quot;&gt;&lt;b&gt;FolderManager&lt;/b&gt;&lt;/h2&gt;&lt;hr size=&quot;1&quot; style=&quot;border-style:solid;&quot;&gt;&lt;h3&gt;&lt;div style=&quot;height:2px;&quot;&gt;&lt;ul&gt;&lt;li&gt;Virtuelle Ordner&lt;/li&gt;&lt;li&gt;Dateizugriffs-verwaltung&lt;/li&gt;&lt;/ul&gt;&lt;div&gt;&lt;br&gt;&lt;/div&gt;&lt;/div&gt;&lt;/h3&gt;" style="verticalAlign=top;align=left;overflow=fill;html=1;whiteSpace=wrap;" vertex="1" parent="1">
          <mxGeometry x="458" y="310" width="179" height="120" as="geometry" />
        </mxCell>
        <mxCell id="-yXR84pEISBXPebQsvSQ-48" value="&lt;h2 style=&quot;margin:0px;margin-top:4px;text-align:center;&quot;&gt;&lt;b&gt;FileManager&lt;/b&gt;&lt;/h2&gt;&lt;hr size=&quot;1&quot; style=&quot;border-style:solid;&quot;&gt;&lt;h3&gt;&lt;div style=&quot;height:2px;&quot;&gt;&lt;ul&gt;&lt;li&gt;Datei-Repräsentation&lt;/li&gt;&lt;li&gt;Metadaten-verwaltung&lt;/li&gt;&lt;/ul&gt;&lt;div&gt;&lt;br&gt;&lt;/div&gt;&lt;/div&gt;&lt;/h3&gt;" style="verticalAlign=top;align=left;overflow=fill;html=1;whiteSpace=wrap;" vertex="1" parent="1">
          <mxGeometry x="458" y="450" width="179" height="120" as="geometry" />
        </mxCell>
        <mxCell id="-yXR84pEISBXPebQsvSQ-49" value="&lt;h2 style=&quot;margin:0px;margin-top:4px;text-align:center;&quot;&gt;&lt;b&gt;PasswordManager&lt;/b&gt;&lt;/h2&gt;&lt;hr size=&quot;1&quot; style=&quot;border-style:solid;&quot;&gt;&lt;h3&gt;&lt;div style=&quot;height:2px;&quot;&gt;&lt;ul&gt;&lt;li&gt;Passwort-Hashing&lt;/li&gt;&lt;li&gt;Authentifizierung&lt;/li&gt;&lt;/ul&gt;&lt;div&gt;&lt;br&gt;&lt;/div&gt;&lt;/div&gt;&lt;/h3&gt;" style="verticalAlign=top;align=left;overflow=fill;html=1;whiteSpace=wrap;" vertex="1" parent="1">
          <mxGeometry x="456" y="590" width="179" height="120" as="geometry" />
        </mxCell>
        <mxCell id="-yXR84pEISBXPebQsvSQ-54" value="&lt;h2 style=&quot;margin:0px;margin-top:4px;text-align:center;&quot;&gt;FileVaultApp&lt;/h2&gt;&lt;hr size=&quot;1&quot; style=&quot;border-style:solid;&quot;&gt;&lt;h3&gt;&lt;div style=&quot;height:2px;&quot;&gt;&lt;ul&gt;&lt;li&gt;Anwendungsstart&lt;/li&gt;&lt;li&gt;GUI-Start&lt;/li&gt;&lt;li&gt;Lebenszyklus&lt;/li&gt;&lt;/ul&gt;&lt;div&gt;&lt;br&gt;&lt;/div&gt;&lt;/div&gt;&lt;/h3&gt;" style="verticalAlign=top;align=left;overflow=fill;html=1;whiteSpace=wrap;" vertex="1" parent="1">
          <mxGeometry x="62" y="170" width="179" height="120" as="geometry" />
        </mxCell>
        <mxCell id="-yXR84pEISBXPebQsvSQ-55" value="&lt;h2 style=&quot;margin:0px;margin-top:4px;text-align:center;&quot;&gt;&lt;b&gt;LoginController&lt;/b&gt;&lt;/h2&gt;&lt;hr size=&quot;1&quot; style=&quot;border-style:solid;&quot;&gt;&lt;h3&gt;&lt;div style=&quot;height:2px;&quot;&gt;&lt;ul&gt;&lt;li&gt;Useranmeldung&lt;/li&gt;&lt;li&gt;Passwortvalidierung&lt;/li&gt;&lt;li&gt;Weiterleitung zum Hauptmenü&lt;/li&gt;&lt;/ul&gt;&lt;/div&gt;&lt;/h3&gt;" style="verticalAlign=top;align=left;overflow=fill;html=1;whiteSpace=wrap;" vertex="1" parent="1">
          <mxGeometry x="60" y="310" width="179" height="120" as="geometry" />
        </mxCell>
        <mxCell id="-yXR84pEISBXPebQsvSQ-56" value="&lt;h2 style=&quot;margin:0px;margin-top:4px;text-align:center;&quot;&gt;&lt;b&gt;MainController&lt;/b&gt;&lt;/h2&gt;&lt;hr size=&quot;1&quot; style=&quot;border-style:solid;&quot;&gt;&lt;h3&gt;&lt;div style=&quot;height:2px;&quot;&gt;&lt;ul&gt;&lt;li&gt;Hauptansicht&lt;/li&gt;&lt;li&gt;Ordnerstruktur&lt;/li&gt;&lt;li&gt;Dateioperationen&lt;/li&gt;&lt;/ul&gt;&lt;div&gt;&lt;br&gt;&lt;/div&gt;&lt;/div&gt;&lt;/h3&gt;" style="verticalAlign=top;align=left;overflow=fill;html=1;whiteSpace=wrap;" vertex="1" parent="1">
          <mxGeometry x="60" y="450" width="179" height="120" as="geometry" />
        </mxCell>
        <mxCell id="-yXR84pEISBXPebQsvSQ-57" value="&lt;h2 style=&quot;margin:0px;margin-top:4px;text-align:center;&quot;&gt;&lt;b&gt;FolderController&lt;/b&gt;&lt;/h2&gt;&lt;hr size=&quot;1&quot; style=&quot;border-style:solid;&quot;&gt;&lt;h3&gt;&lt;div style=&quot;height:2px;&quot;&gt;&lt;ul&gt;&lt;li&gt;Dateiimport/ -export&lt;/li&gt;&lt;li&gt;Ordner-inhaltsanzeige&lt;/li&gt;&lt;/ul&gt;&lt;/div&gt;&lt;/h3&gt;" style="verticalAlign=top;align=left;overflow=fill;html=1;whiteSpace=wrap;" vertex="1" parent="1">
          <mxGeometry x="58" y="590" width="179" height="120" as="geometry" />
        </mxCell>
        <mxCell id="-yXR84pEISBXPebQsvSQ-58" value="&lt;h2 style=&quot;margin:0px;margin-top:4px;text-align:center;&quot;&gt;DatabaseService&lt;/h2&gt;&lt;hr size=&quot;1&quot; style=&quot;border-style:solid;&quot;&gt;&lt;h3&gt;&lt;div style=&quot;height:2px;&quot;&gt;&lt;ul&gt;&lt;li&gt;SQLite-Datenbank&lt;/li&gt;&lt;li&gt;Datenbank-operationen&lt;/li&gt;&lt;/ul&gt;&lt;div&gt;&lt;br&gt;&lt;/div&gt;&lt;/div&gt;&lt;/h3&gt;" style="verticalAlign=top;align=left;overflow=fill;html=1;whiteSpace=wrap;" vertex="1" parent="1">
          <mxGeometry x="862" y="170" width="179" height="120" as="geometry" />
        </mxCell>
        <mxCell id="-yXR84pEISBXPebQsvSQ-59" value="&lt;h2 style=&quot;margin:0px;margin-top:4px;text-align:center;&quot;&gt;EncryptionService&lt;/h2&gt;&lt;hr size=&quot;1&quot; style=&quot;border-style:solid;&quot;&gt;&lt;h3&gt;&lt;div style=&quot;height:2px;&quot;&gt;&lt;ul&gt;&lt;li&gt;Schlüssel-generierung&lt;/li&gt;&lt;li&gt;Verschlüsselungs-operationen&lt;/li&gt;&lt;/ul&gt;&lt;div&gt;&lt;br&gt;&lt;/div&gt;&lt;/div&gt;&lt;/h3&gt;" style="verticalAlign=top;align=left;overflow=fill;html=1;whiteSpace=wrap;" vertex="1" parent="1">
          <mxGeometry x="860" y="310" width="179" height="120" as="geometry" />
        </mxCell>
        <mxCell id="-yXR84pEISBXPebQsvSQ-60" value="&lt;h2 style=&quot;margin:0px;margin-top:4px;text-align:center;&quot;&gt;FileStorageService&lt;/h2&gt;&lt;hr size=&quot;1&quot; style=&quot;border-style:solid;&quot;&gt;&lt;h3&gt;&lt;div style=&quot;height:2px;&quot;&gt;&lt;ul&gt;&lt;li&gt;Dateioperationen&lt;/li&gt;&lt;li&gt;Verschlüsselungs-koordination&lt;/li&gt;&lt;/ul&gt;&lt;div&gt;&lt;br&gt;&lt;/div&gt;&lt;/div&gt;&lt;/h3&gt;" style="verticalAlign=top;align=left;overflow=fill;html=1;whiteSpace=wrap;" vertex="1" parent="1">
          <mxGeometry x="860" y="450" width="179" height="120" as="geometry" />
        </mxCell>
        <mxCell id="-yXR84pEISBXPebQsvSQ-61" value="&lt;h2 style=&quot;margin:0px;margin-top:4px;text-align:center;&quot;&gt;FileUtils&lt;/h2&gt;&lt;hr size=&quot;1&quot; style=&quot;border-style:solid;&quot;&gt;&lt;h3&gt;&lt;div style=&quot;height:2px;&quot;&gt;&lt;ul&gt;&lt;li&gt;DateiTyp-Validierung&amp;nbsp;&lt;/li&gt;&lt;li&gt;Pfadverarbeitung&lt;/li&gt;&lt;/ul&gt;&lt;div&gt;&lt;br&gt;&lt;/div&gt;&lt;div&gt;&lt;br&gt;&lt;/div&gt;&lt;/div&gt;&lt;/h3&gt;" style="verticalAlign=top;align=left;overflow=fill;html=1;whiteSpace=wrap;" vertex="1" parent="1">
          <mxGeometry x="858" y="590" width="179" height="120" as="geometry" />
        </mxCell>
        <mxCell id="-yXR84pEISBXPebQsvSQ-68" style="edgeStyle=orthogonalEdgeStyle;rounded=0;orthogonalLoop=1;jettySize=auto;html=1;exitX=1;exitY=0.25;exitDx=0;exitDy=0;" edge="1" parent="1">
          <mxGeometry relative="1" as="geometry">
            <mxPoint x="270" y="500" as="targetPoint" />
            <mxPoint x="260" y="370" as="sourcePoint" />
            <Array as="points">
              <mxPoint x="260" y="371" />
              <mxPoint x="300" y="371" />
              <mxPoint x="300" y="500" />
              <mxPoint x="270" y="500" />
            </Array>
          </mxGeometry>
        </mxCell>
        <mxCell id="-yXR84pEISBXPebQsvSQ-72" style="edgeStyle=orthogonalEdgeStyle;rounded=0;orthogonalLoop=1;jettySize=auto;html=1;exitX=1;exitY=0.25;exitDx=0;exitDy=0;" edge="1" parent="1">
          <mxGeometry relative="1" as="geometry">
            <mxPoint x="270" y="640" as="targetPoint" />
            <mxPoint x="260" y="510" as="sourcePoint" />
            <Array as="points">
              <mxPoint x="260" y="511" />
              <mxPoint x="300" y="511" />
              <mxPoint x="300" y="640" />
              <mxPoint x="270" y="640" />
            </Array>
          </mxGeometry>
        </mxCell>
      </root>
    </mxGraphModel>
  </diagram>
</mxfile>
